<svg xmlns="http://www.w3.org/2000/svg" xmlns:xlink="http://www.w3.org/1999/xlink" x="0" y="0" width="921.720947265625" height="475.7317199707031" style="
        width:921.720947265625px;
        height:475.7317199707031px;
        background: transparent;
        fill: none;
">
        
        
        <svg xmlns="http://www.w3.org/2000/svg" class="role-diagram-draw-area"><g class="shapes-region" style="stroke: black; fill: none;"><g class="composite-shape"><path class="real" d=" M48,126 L118,126 L118,313.59 L48,313.59 Z" style="stroke-width: 1; stroke: rgb(0, 0, 0); fill: rgb(245, 166, 35); fill-opacity: 1;"/></g><g class="composite-shape"><path class="real" d=" M155,62.59 L283,62.59 L283,388.59 L155,388.59 Z" style="stroke-width: 1; stroke: rgb(0, 0, 0); fill: rgb(126, 211, 33); fill-opacity: 1;"/></g><g class="composite-shape"><path class="real" d=" M325,113 L402,113 L402,359.59 L325,359.59 Z" style="stroke-width: 1; stroke: rgb(0, 0, 0); fill: rgb(80, 227, 194); fill-opacity: 1;"/></g><g class="composite-shape"><path class="real" d=" M461,134 L653,134 L653,321.59 L461,321.59 Z" style="stroke-width: 1; stroke: rgb(0, 0, 0); fill: rgb(74, 144, 226); fill-opacity: 1;"/></g><g class="composite-shape"><path class="real" d=" M701,135 L833,135 L833,322.59 L701,322.59 Z" style="stroke-width: 1; stroke: rgb(0, 0, 0); fill: rgb(252, 68, 91); fill-opacity: 1;"/></g><g class="arrow-line"><path class="connection real" stroke-dasharray="" d="  M115,220.59 L155,220.59" style="stroke: rgb(0, 0, 0); stroke-width: 1; fill: none; fill-opacity: 1;"/><g stroke="none" fill="#000" transform="matrix(-1,1.2246467991473532e-16,-1.2246467991473532e-16,-1,157.99999999999997,220.59375000000003)" style="stroke: none; fill: rgb(0, 0, 0); stroke-width: 1;"><path d=" M8.93,-4.29 L0,0 L8.93,4.29 Z"/></g></g><g class="arrow-line"><path class="connection real" stroke-dasharray="" d="  M282,222.59 L322,222.59" style="stroke: rgb(0, 0, 0); stroke-width: 1; fill: none; fill-opacity: 1;"/><g stroke="none" fill="#000" transform="matrix(-1,1.2246467991473532e-16,-1.2246467991473532e-16,-1,325,222.59375000000003)" style="stroke: none; fill: rgb(0, 0, 0); stroke-width: 1;"><path d=" M8.93,-4.29 L0,0 L8.93,4.29 Z"/></g></g><g class="arrow-line"><path class="connection real" stroke-dasharray="" d="  M406,222.59 L459,222.59" style="stroke: rgb(0, 0, 0); stroke-width: 1; fill: none; fill-opacity: 1;"/><g stroke="none" fill="#000" transform="matrix(-1,1.2246467991473532e-16,-1.2246467991473532e-16,-1,462,222.59375)" style="stroke: none; fill: rgb(0, 0, 0); stroke-width: 1;"><path d=" M8.93,-4.29 L0,0 L8.93,4.29 Z"/></g></g><g class="arrow-line"><path class="connection real" stroke-dasharray="" d="  M653,215.59 L701,215.59" style="stroke: rgb(0, 0, 0); stroke-width: 1; fill: none; fill-opacity: 1;"/><g stroke="none" fill="#000" transform="matrix(-1,1.2246467991473532e-16,-1.2246467991473532e-16,-1,704,215.59374999999997)" style="stroke: none; fill: rgb(0, 0, 0); stroke-width: 1;"><path d=" M8.93,-4.29 L0,0 L8.93,4.29 Z"/></g></g><g/></g><g/><g/><g/></svg>
        <svg xmlns="http://www.w3.org/2000/svg" xmlns:xlink="http://www.w3.org/1999/xlink" width="919.9865112304688" height="473.997314453125" style="width:919.9865112304688px;height:473.997314453125px;font-family:LatinModern-Math, LatinModern, Asana-Math, Asana;background:transparent;"><g><g><g><g transform="matrix(1,0,0,1,55.8536376953125,219.58810424804688)"><path transform="matrix(0.022,0,0,-0.022,0,0)" d="M35 623L177 623L295 624L295 0L384 0L384 624L501 623L643 623L643 689L35 689ZM627 221C627 85 732 -11 846 -11C960 -11 1066 84 1066 220C1066 345 974 461 846 461C728 461 627 357 627 221ZM705 231C705 352 782 399 846 399C910 399 987 353 987 231C987 106 913 53 846 53C780 53 705 105 705 231ZM1178 -195L1256 -195L1256 46C1289 15 1332 -11 1391 -11C1488 -11 1577 83 1577 224C1577 343 1514 455 1419 455C1385 455 1317 448 1253 396L1253 445L1178 445ZM1256 126L1256 334C1262 341 1296 391 1362 391C1444 391 1498 310 1498 222C1498 116 1423 50 1353 50C1294 50 1256 102 1256 126ZM1695 0L1770 0L1770 445L1695 445ZM1688 590L1778 590L1778 679L1688 679ZM1888 223C1888 95 1982 -11 2105 -11C2174 -11 2223 11 2268 40L2263 107C2231 85 2184 53 2106 53C2022 53 1966 126 1966 223C1966 310 2010 397 2107 397C2186 397 2212 376 2251 351L2263 417C2202 452 2170 461 2108 461C1968 461 1888 339 1888 223Z" stroke="rgb(0,0,0)" stroke-opacity="1" stroke-width="8" fill="rgb(0,0,0)" fill-opacity="1"></path></g></g></g></g><g><g><g><g transform="matrix(1,0,0,1,165.6097412109375,196.268310546875)"><path transform="matrix(0.022,0,0,-0.022,0,0)" d="M96 0L344 0C361 0 378 0 395 2C509 13 610 88 610 188C610 282 514 347 414 363C529 392 582 457 582 520C582 590 512 694 318 694L96 694ZM180 56L180 293L181 330L300 330C317 330 334 331 351 329C445 320 528 264 528 189C528 136 473 56 322 56ZM180 392L180 603L181 638L295 638C449 638 503 567 503 519C503 459 433 392 300 392ZM711 113C711 67 741 -11 825 -11C935 -11 990 34 991 35L991 0L1067 0L1067 305C1062 389 996 461 901 461C838 461 792 445 744 417L750 350C783 373 825 401 900 401C913 401 939 400 963 371C988 341 988 307 989 279L989 245C886 244 711 219 711 113ZM784 114C784 177 917 192 989 193L989 130C989 65 920 51 877 51C823 51 784 78 784 114ZM1174 34C1249 -7 1310 -11 1344 -11C1478 -11 1507 72 1507 127C1507 192 1461 234 1420 252C1358 280 1251 267 1251 340C1251 365 1266 401 1335 401C1407 401 1439 383 1479 364L1490 430C1435 453 1400 461 1344 461C1208 461 1180 382 1180 329C1180 259 1240 220 1284 206C1315 196 1358 191 1380 184C1400 178 1436 158 1436 120C1436 93 1418 52 1343 52C1262 52 1214 86 1186 102ZM1564 226C1564 102 1651 -11 1782 -11C1845 -11 1897 11 1940 40L1934 106C1890 74 1845 51 1782 51C1706 51 1638 117 1634 220L1944 220L1944 249C1935 420 1837 461 1766 461C1660 461 1564 360 1564 226ZM1639 275C1650 324 1690 399 1766 399C1795 399 1870 386 1887 275Z" stroke="rgb(0,0,0)" stroke-opacity="1" stroke-width="8" fill="rgb(0,0,0)" fill-opacity="1"></path></g></g></g><g><g><g transform="matrix(1,0,0,1,165.6097412109375,227.06777954101562)"><path transform="matrix(0.022,0,0,-0.022,0,0)" d="M83 0L153 0L153 142L233 224L389 0L471 0L281 273L449 445L359 445L155 236L155 722L83 722ZM569 0L647 0L647 240C647 314 672 394 749 394C847 394 847 319 847 281L847 0L925 0L925 288C925 358 916 455 788 455C700 455 656 398 642 380L642 450L569 450ZM1036 221C1036 85 1141 -11 1255 -11C1369 -11 1475 84 1475 220C1475 345 1383 461 1255 461C1137 461 1036 357 1036 221ZM1114 231C1114 352 1191 399 1255 399C1319 399 1396 353 1396 231C1396 106 1322 53 1255 53C1189 53 1114 105 1114 231ZM1492 445L1630 0L1709 0C1748 129 1812 331 1815 394C1825 320 1833 293 1922 0L2009 0L2147 445L2074 445C1991 174 1967 89 1963 50C1959 81 1954 96 1925 201L1852 445L1781 445C1747 335 1678 113 1675 50C1670 88 1666 129 1567 445ZM2242 0L2317 0L2317 722L2242 722ZM2434 226C2434 102 2521 -11 2652 -11C2715 -11 2767 11 2810 40L2804 106C2760 74 2715 51 2652 51C2576 51 2508 117 2504 220L2814 220L2814 249C2805 420 2707 461 2636 461C2530 461 2434 360 2434 226ZM2509 275C2520 324 2560 399 2636 399C2665 399 2740 386 2757 275ZM2879 221C2879 102 2949 -11 3051 -11C3117 -11 3165 19 3199 52L3199 0L3278 0L3278 722L3202 722L3202 401C3167 429 3120 456 3057 456C2958 456 2879 353 2879 221ZM2957 222C2957 353 3044 394 3102 394L3104 394C3115 394 3147 393 3178 364C3196 347 3199 341 3199 325L3199 134C3199 103 3152 51 3092 51C3038 51 2957 90 2957 222ZM3388 -71C3388 -148 3487 -206 3610 -206C3732 -206 3832 -148 3832 -70C3832 -58 3830 -45 3827 -33C3799 67 3677 69 3611 69L3536 69C3488 69 3480 103 3480 122C3480 129 3481 139 3491 159C3513 145 3538 129 3582 129C3675 129 3742 207 3742 292C3742 335 3729 364 3703 399L3712 391C3730 392 3761 395 3787 395C3807 395 3826 394 3846 392L3835 455C3781 455 3728 445 3678 424L3680 422C3647 445 3619 455 3582 455C3500 455 3423 389 3423 292C3423 272 3426 232 3456 193L3456 192C3438 168 3427 141 3427 108C3427 76 3436 55 3452 32C3413 9 3388 -30 3388 -71ZM3458 -71C3458 -42 3480 -8 3521 -4L3550 -3L3613 -3C3721 -3 3762 -31 3762 -72C3762 -118 3690 -149 3609 -149C3554 -149 3458 -127 3458 -71ZM3493 292C3493 377 3546 398 3582 398C3636 398 3672 358 3672 293C3672 208 3619 187 3583 187C3529 187 3493 227 3493 292ZM3895 226C3895 102 3982 -11 4113 -11C4176 -11 4228 11 4271 40L4265 106C4221 74 4176 51 4113 51C4037 51 3969 117 3965 220L4275 220L4275 249C4266 420 4168 461 4097 461C3991 461 3895 360 3895 226ZM3970 275C3981 324 4021 399 4097 399C4126 399 4201 386 4218 275Z" stroke="rgb(0,0,0)" stroke-opacity="1" stroke-width="8" fill="rgb(0,0,0)" fill-opacity="1"></path></g></g></g><g><g><g transform="matrix(1,0,0,1,165.6097412109375,257.86724853515625)"><path transform="matrix(0.022,0,0,-0.022,0,0)" d="M44 113C44 67 74 -11 158 -11C268 -11 323 34 324 35L324 0L400 0L400 305C395 389 329 461 234 461C171 461 125 445 77 417L83 350C116 373 158 401 233 401C246 401 272 400 296 371C321 341 321 307 322 279L322 245C219 244 44 219 44 113ZM117 114C117 177 250 192 322 193L322 130C322 65 253 51 210 51C156 51 117 78 117 114ZM561 0L639 0L639 46C673 15 714 -11 773 -11C872 -11 960 86 960 224C960 344 895 455 796 455C765 455 700 448 636 397L636 722L561 722ZM639 133L639 320C639 357 694 394 746 394C800 394 881 356 881 223C881 92 795 50 738 50C709 50 679 62 656 90C643 109 639 107 639 133ZM1055 221C1055 85 1160 -11 1274 -11C1388 -11 1494 84 1494 220C1494 345 1402 461 1274 461C1156 461 1055 357 1055 221ZM1133 231C1133 352 1210 399 1274 399C1338 399 1415 353 1415 231C1415 106 1341 53 1274 53C1208 53 1133 105 1133 231ZM1605 122C1605 70 1605 -11 1710 -11C1765 -11 1833 3 1885 48L1885 0L1961 0L1961 445L1883 445L1883 165C1883 155 1883 146 1882 136C1877 93 1838 45 1763 45C1695 45 1684 67 1683 110L1683 445L1605 445ZM2060 386L2144 386L2144 117C2144 7 2193 -11 2226 -11C2271 -11 2322 -1 2374 27L2358 86C2344 76 2313 53 2270 53C2218 53 2216 112 2216 140L2216 386L2357 386L2357 445L2216 445L2216 571L2146 571L2146 445L2060 445ZM2830 245C2830 58 2971 -22 3082 -22C3194 -22 3329 62 3329 241L3329 694L3250 694L3250 258C3250 252 3251 246 3251 240C3251 80 3150 34 3082 34C3021 34 2919 71 2919 244C2919 256 2920 267 2920 279L2920 694L2830 694ZM3450 34C3525 -7 3586 -11 3620 -11C3754 -11 3783 72 3783 127C3783 192 3737 234 3696 252C3634 280 3527 267 3527 340C3527 365 3542 401 3611 401C3683 401 3715 383 3755 364L3766 430C3711 453 3676 461 3620 461C3484 461 3456 382 3456 329C3456 259 3516 220 3560 206C3591 196 3634 191 3656 184C3676 178 3712 158 3712 120C3712 93 3694 52 3619 52C3538 52 3490 86 3462 102ZM3840 226C3840 102 3927 -11 4058 -11C4121 -11 4173 11 4216 40L4210 106C4166 74 4121 51 4058 51C3982 51 3914 117 3910 220L4220 220L4220 249C4211 420 4113 461 4042 461C3936 461 3840 360 3840 226ZM3915 275C3926 324 3966 399 4042 399C4071 399 4146 386 4163 275ZM4331 0L4406 0L4406 206C4406 352 4517 386 4576 388L4576 455C4470 453 4417 385 4401 360L4401 450L4331 450Z" stroke="rgb(0,0,0)" stroke-opacity="1" stroke-width="8" fill="rgb(0,0,0)" fill-opacity="1"></path></g></g></g><g><g><g transform="matrix(1,0,0,1,165.6097412109375,288.66668701171875)"><path transform="matrix(0.022,0,0,-0.022,0,0)" d="M44 113C44 67 74 -11 158 -11C268 -11 323 34 324 35L324 0L400 0L400 305C395 389 329 461 234 461C171 461 125 445 77 417L83 350C116 373 158 401 233 401C246 401 272 400 296 371C321 341 321 307 322 279L322 245C219 244 44 219 44 113ZM117 114C117 177 250 192 322 193L322 130C322 65 253 51 210 51C156 51 117 78 117 114ZM560 0L638 0L638 240C638 314 663 394 740 394C838 394 838 319 838 281L838 0L916 0L916 288C916 358 907 455 779 455C691 455 647 398 633 380L633 450L560 450ZM1032 221C1032 102 1102 -11 1204 -11C1270 -11 1318 19 1352 52L1352 0L1431 0L1431 722L1355 722L1355 401C1320 429 1273 456 1210 456C1111 456 1032 353 1032 221ZM1110 222C1110 353 1197 394 1255 394L1257 394C1268 394 1300 393 1331 364C1349 347 1352 341 1352 325L1352 134C1352 103 1305 51 1245 51C1191 51 1110 90 1110 222ZM1928 -195L2006 -195L2006 46C2039 15 2082 -11 2141 -11C2238 -11 2327 83 2327 224C2327 343 2264 455 2169 455C2135 455 2067 448 2003 396L2003 445L1928 445ZM2006 126L2006 334C2012 341 2046 391 2112 391C2194 391 2248 310 2248 222C2248 116 2173 50 2103 50C2044 50 2006 102 2006 126ZM2350 445L2537 18C2541 10 2542 6 2542 1C2542 -3 2541 -8 2538 -15C2495 -119 2487 -149 2445 -149C2428 -149 2406 -143 2372 -132L2377 -197C2401 -203 2431 -205 2450 -205C2496 -205 2525 -182 2565 -90L2782 445L2707 445C2641 281 2576 118 2574 50C2565 107 2565 134 2429 445ZM2815 386L2899 386L2899 117C2899 7 2948 -11 2981 -11C3026 -11 3077 -1 3129 27L3113 86C3099 76 3068 53 3025 53C2973 53 2971 112 2971 140L2971 386L3112 386L3112 445L2971 445L2971 571L2901 571L2901 445L2815 445ZM3238 0L3316 0L3316 240C3316 314 3341 394 3418 394C3516 394 3516 319 3516 281L3516 0L3594 0L3594 288C3594 349 3590 455 3457 455C3388 455 3345 422 3313 384L3313 722L3238 722ZM3705 221C3705 85 3810 -11 3924 -11C4038 -11 4144 84 4144 220C4144 345 4052 461 3924 461C3806 461 3705 357 3705 221ZM3783 231C3783 352 3860 399 3924 399C3988 399 4065 353 4065 231C4065 106 3991 53 3924 53C3858 53 3783 105 3783 231ZM4255 0L4333 0L4333 240C4333 314 4358 394 4435 394C4533 394 4533 319 4533 281L4533 0L4611 0L4611 288C4611 358 4602 455 4474 455C4386 455 4342 398 4328 380L4328 450L4255 450Z" stroke="rgb(0,0,0)" stroke-opacity="1" stroke-width="8" fill="rgb(0,0,0)" fill-opacity="1"></path></g></g></g></g><g><g><g><g transform="matrix(1,0,0,1,332.20867919921875,233.49053955078125)"><path transform="matrix(0.022,0,0,-0.022,0,0)" d="M94 0L499 0L499 66L379 65L184 65L184 694L94 694ZM576 226C576 102 663 -11 794 -11C857 -11 909 11 952 40L946 106C902 74 857 51 794 51C718 51 650 117 646 220L956 220L956 249C947 420 849 461 778 461C672 461 576 360 576 226ZM651 275C662 324 702 399 778 399C807 399 882 386 899 275ZM1013 34C1088 -7 1149 -11 1183 -11C1317 -11 1346 72 1346 127C1346 192 1300 234 1259 252C1197 280 1090 267 1090 340C1090 365 1105 401 1174 401C1246 401 1278 383 1318 364L1329 430C1274 453 1239 461 1183 461C1047 461 1019 382 1019 329C1019 259 1079 220 1123 206C1154 196 1197 191 1219 184C1239 178 1275 158 1275 120C1275 93 1257 52 1182 52C1101 52 1053 86 1025 102ZM1396 34C1471 -7 1532 -11 1566 -11C1700 -11 1729 72 1729 127C1729 192 1683 234 1642 252C1580 280 1473 267 1473 340C1473 365 1488 401 1557 401C1629 401 1661 383 1701 364L1712 430C1657 453 1622 461 1566 461C1430 461 1402 382 1402 329C1402 259 1462 220 1506 206C1537 196 1580 191 1602 184C1622 178 1658 158 1658 120C1658 93 1640 52 1565 52C1484 52 1436 86 1408 102ZM1782 221C1782 85 1887 -11 2001 -11C2115 -11 2221 84 2221 220C2221 345 2129 461 2001 461C1883 461 1782 357 1782 221ZM1860 231C1860 352 1937 399 2001 399C2065 399 2142 353 2142 231C2142 106 2068 53 2001 53C1935 53 1860 105 1860 231ZM2332 0L2410 0L2410 240C2410 314 2435 394 2512 394C2610 394 2610 319 2610 281L2610 0L2688 0L2688 288C2688 358 2679 455 2551 455C2463 455 2419 398 2405 380L2405 450L2332 450Z" stroke="rgb(0,0,0)" stroke-opacity="1" stroke-width="8" fill="rgb(0,0,0)" fill-opacity="1"></path></g></g></g><g><g><g transform="matrix(1,0,0,1,332.20867919921875,264.28997802734375)"><path transform="matrix(0.022,0,0,-0.022,0,0)" d="M95 0L185 0L185 289L302 289C313 289 324 288 335 288C505 288 582 401 582 493C582 558 546 617 485 655C434 687 385 694 331 694L95 694ZM182 347L182 638L315 638C470 638 501 544 501 493C501 435 463 347 315 347ZM720 0L795 0L795 722L720 722ZM922 113C922 67 952 -11 1036 -11C1146 -11 1201 34 1202 35L1202 0L1278 0L1278 305C1273 389 1207 461 1112 461C1049 461 1003 445 955 417L961 350C994 373 1036 401 1111 401C1124 401 1150 400 1174 371C1199 341 1199 307 1200 279L1200 245C1097 244 922 219 922 113ZM995 114C995 177 1128 192 1200 193L1200 130C1200 65 1131 51 1088 51C1034 51 995 78 995 114ZM1438 0L1516 0L1516 240C1516 314 1541 394 1618 394C1716 394 1716 319 1716 281L1716 0L1794 0L1794 288C1794 358 1785 455 1657 455C1569 455 1525 398 1511 380L1511 450L1438 450Z" stroke="rgb(0,0,0)" stroke-opacity="1" stroke-width="8" fill="rgb(0,0,0)" fill-opacity="1"></path></g></g></g></g><g><g><g><g transform="matrix(1,0,0,1,467.84552001953125,223.59893798828125)"><path transform="matrix(0.022,0,0,-0.022,0,0)" d="M44 47C107 7 181 -22 273 -22C410 -22 499 81 499 189C499 289 429 355 365 382C329 397 244 412 215 424C171 442 135 482 135 531C135 590 189 649 280 649C362 649 404 621 450 585L464 668C412 696 362 716 281 716C140 716 55 616 55 519C55 415 138 351 209 332C296 309 309 308 333 299C384 278 419 232 419 179C419 114 364 47 273 47C174 47 107 92 59 130ZM599 113C599 67 629 -11 713 -11C823 -11 878 34 879 35L879 0L955 0L955 305C950 389 884 461 789 461C726 461 680 445 632 417L638 350C671 373 713 401 788 401C801 401 827 400 851 371C876 341 876 307 877 279L877 245C774 244 599 219 599 113ZM672 114C672 177 805 192 877 193L877 130C877 65 808 51 765 51C711 51 672 78 672 114ZM1115 0L1193 0L1193 240C1193 314 1218 394 1295 394C1393 394 1393 319 1393 281L1393 0L1471 0L1471 240C1471 314 1496 394 1573 394C1671 394 1670 281 1670 281L1670 0L1749 0L1749 288C1749 346 1746 455 1612 455C1521 455 1476 394 1461 374C1447 412 1417 455 1334 455C1246 455 1202 398 1188 380L1188 450L1115 450ZM1910 -195L1988 -195L1988 46C2021 15 2064 -11 2123 -11C2220 -11 2309 83 2309 224C2309 343 2246 455 2151 455C2117 455 2049 448 1985 396L1985 445L1910 445ZM1988 126L1988 334C1994 341 2028 391 2094 391C2176 391 2230 310 2230 222C2230 116 2155 50 2085 50C2026 50 1988 102 1988 126ZM2427 0L2502 0L2502 722L2427 722ZM2619 226C2619 102 2706 -11 2837 -11C2900 -11 2952 11 2995 40L2989 106C2945 74 2900 51 2837 51C2761 51 2693 117 2689 220L2999 220L2999 249C2990 420 2892 461 2821 461C2715 461 2619 360 2619 226ZM2694 275C2705 324 2745 399 2821 399C2850 399 2925 386 2942 275ZM3417 250C3417 237 3426 219 3454 219C3458 219 3462 220 3462 220L3720 220L3720 -38C3720 -45 3719 -53 3721 -60C3723 -68 3733 -83 3751 -83C3783 -83 3781 -49 3781 -38L3781 220L4043 220C4057 220 4083 221 4083 250C4083 279 4055 281 4041 281L3781 281L3781 538C3781 541 3784 583 3750 583C3719 583 3720 550 3720 538L3720 281L3464 281C3456 281 3447 281 3439 279C3431 277 3417 268 3417 250ZM4507 226C4507 102 4594 -11 4725 -11C4788 -11 4840 11 4883 40L4877 106C4833 74 4788 51 4725 51C4649 51 4581 117 4577 220L4887 220L4887 249C4878 420 4780 461 4709 461C4603 461 4507 360 4507 226ZM4582 275C4593 324 4633 399 4709 399C4738 399 4813 386 4830 275ZM4917 0L5000 0L5144 188L5294 0L5377 0L5177 229L5177 230L5361 445L5278 445L5145 280L5144 280L5006 445L4923 445L5111 230L5111 228ZM5412 226C5412 102 5499 -11 5630 -11C5693 -11 5745 11 5788 40L5782 106C5738 74 5693 51 5630 51C5554 51 5486 117 5482 220L5792 220L5792 249C5783 420 5685 461 5614 461C5508 461 5412 360 5412 226ZM5487 275C5498 324 5538 399 5614 399C5643 399 5718 386 5735 275ZM5903 0L5978 0L5978 206C5978 352 6089 386 6148 388L6148 455C6042 453 5989 385 5973 360L5973 450L5903 450ZM6199 223C6199 95 6293 -11 6416 -11C6485 -11 6534 11 6579 40L6574 107C6542 85 6495 53 6417 53C6333 53 6277 126 6277 223C6277 310 6321 397 6418 397C6497 397 6523 376 6562 351L6574 417C6513 452 6481 461 6419 461C6279 461 6199 339 6199 223ZM6689 0L6764 0L6764 445L6689 445ZM6682 590L6772 590L6772 679L6682 679ZM6874 34C6949 -7 7010 -11 7044 -11C7178 -11 7207 72 7207 127C7207 192 7161 234 7120 252C7058 280 6951 267 6951 340C6951 365 6966 401 7035 401C7107 401 7139 383 7179 364L7190 430C7135 453 7100 461 7044 461C6908 461 6880 382 6880 329C6880 259 6940 220 6984 206C7015 196 7058 191 7080 184C7100 178 7136 158 7136 120C7136 93 7118 52 7043 52C6962 52 6914 86 6886 102ZM7264 226C7264 102 7351 -11 7482 -11C7545 -11 7597 11 7640 40L7634 106C7590 74 7545 51 7482 51C7406 51 7338 117 7334 220L7644 220L7644 249C7635 420 7537 461 7466 461C7360 461 7264 360 7264 226ZM7339 275C7350 324 7390 399 7466 399C7495 399 7570 386 7587 275Z" stroke="rgb(0,0,0)" stroke-opacity="1" stroke-width="8" fill="rgb(0,0,0)" fill-opacity="1"></path></g></g></g><g><g><g transform="matrix(1,0,0,1,467.84552001953125,254.39837646484375)"><path transform="matrix(0.022,0,0,-0.022,0,0)" d="M81 -195L159 -195L159 46C192 15 235 -11 294 -11C391 -11 480 83 480 224C480 343 417 455 322 455C288 455 220 448 156 396L156 445L81 445ZM159 126L159 334C165 341 199 391 265 391C347 391 401 310 401 222C401 116 326 50 256 50C197 50 159 102 159 126ZM570 0L645 0L645 206C645 352 756 386 815 388L815 455C709 453 656 385 640 360L640 450L570 450ZM861 221C861 85 966 -11 1080 -11C1194 -11 1300 84 1300 220C1300 345 1208 461 1080 461C962 461 861 357 861 221ZM939 231C939 352 1016 399 1080 399C1144 399 1221 353 1221 231C1221 106 1147 53 1080 53C1014 53 939 105 939 231ZM1412 0L1490 0L1490 46C1524 15 1565 -11 1624 -11C1723 -11 1811 86 1811 224C1811 344 1746 455 1647 455C1616 455 1551 448 1487 397L1487 722L1412 722ZM1490 133L1490 320C1490 357 1545 394 1597 394C1651 394 1732 356 1732 223C1732 92 1646 50 1589 50C1560 50 1530 62 1507 90C1494 109 1490 107 1490 133ZM1929 0L2004 0L2004 722L1929 722ZM2121 226C2121 102 2208 -11 2339 -11C2402 -11 2454 11 2497 40L2491 106C2447 74 2402 51 2339 51C2263 51 2195 117 2191 220L2501 220L2501 249C2492 420 2394 461 2323 461C2217 461 2121 360 2121 226ZM2196 275C2207 324 2247 399 2323 399C2352 399 2427 386 2444 275ZM2611 0L2689 0L2689 240C2689 314 2714 394 2791 394C2889 394 2889 319 2889 281L2889 0L2967 0L2967 240C2967 314 2992 394 3069 394C3167 394 3166 281 3166 281L3166 0L3245 0L3245 288C3245 346 3242 455 3108 455C3017 455 2972 394 2957 374C2943 412 2913 455 2830 455C2742 455 2698 398 2684 380L2684 450L2611 450ZM3352 34C3427 -7 3488 -11 3522 -11C3656 -11 3685 72 3685 127C3685 192 3639 234 3598 252C3536 280 3429 267 3429 340C3429 365 3444 401 3513 401C3585 401 3617 383 3657 364L3668 430C3613 453 3578 461 3522 461C3386 461 3358 382 3358 329C3358 259 3418 220 3462 206C3493 196 3536 191 3558 184C3578 178 3614 158 3614 120C3614 93 3596 52 3521 52C3440 52 3392 86 3364 102Z" stroke="rgb(0,0,0)" stroke-opacity="1" stroke-width="8" fill="rgb(0,0,0)" fill-opacity="1"></path></g></g></g></g><g><g><g><g transform="matrix(1,0,0,1,708.8483276367188,228.59893798828125)"><path transform="matrix(0.022,0,0,-0.022,0,0)" d="M94 0L555 0L555 72L509 72L487 71L293 71L269 70L184 70L184 329L514 329L514 390L184 390L184 627L219 626L459 626L484 625L541 625L541 691L94 691ZM611 445L783 0L871 0L1043 445L969 445C872 193 835 90 829 50C824 81 818 97 781 201L688 445ZM1102 113C1102 67 1132 -11 1216 -11C1326 -11 1381 34 1382 35L1382 0L1458 0L1458 305C1453 389 1387 461 1292 461C1229 461 1183 445 1135 417L1141 350C1174 373 1216 401 1291 401C1304 401 1330 400 1354 371C1379 341 1379 307 1380 279L1380 245C1277 244 1102 219 1102 113ZM1175 114C1175 177 1308 192 1380 193L1380 130C1380 65 1311 51 1268 51C1214 51 1175 78 1175 114ZM1619 0L1694 0L1694 722L1619 722ZM1857 122C1857 70 1857 -11 1962 -11C2017 -11 2085 3 2137 48L2137 0L2213 0L2213 445L2135 445L2135 165C2135 155 2135 146 2134 136C2129 93 2090 45 2015 45C1947 45 1936 67 1935 110L1935 445L1857 445ZM2338 113C2338 67 2368 -11 2452 -11C2562 -11 2617 34 2618 35L2618 0L2694 0L2694 305C2689 389 2623 461 2528 461C2465 461 2419 445 2371 417L2377 350C2410 373 2452 401 2527 401C2540 401 2566 400 2590 371C2615 341 2615 307 2616 279L2616 245C2513 244 2338 219 2338 113ZM2411 114C2411 177 2544 192 2616 193L2616 130C2616 65 2547 51 2504 51C2450 51 2411 78 2411 114ZM2792 386L2876 386L2876 117C2876 7 2925 -11 2958 -11C3003 -11 3054 -1 3106 27L3090 86C3076 76 3045 53 3002 53C2950 53 2948 112 2948 140L2948 386L3089 386L3089 445L2948 445L2948 571L2878 571L2878 445L2792 445ZM3216 0L3291 0L3291 445L3216 445ZM3209 590L3299 590L3299 679L3209 679ZM3404 221C3404 85 3509 -11 3623 -11C3737 -11 3843 84 3843 220C3843 345 3751 461 3623 461C3505 461 3404 357 3404 221ZM3482 231C3482 352 3559 399 3623 399C3687 399 3764 353 3764 231C3764 106 3690 53 3623 53C3557 53 3482 105 3482 231ZM3954 0L4032 0L4032 240C4032 314 4057 394 4134 394C4232 394 4232 319 4232 281L4232 0L4310 0L4310 288C4310 358 4301 455 4173 455C4085 455 4041 398 4027 380L4027 450L3954 450ZM4734 193L5000 193L5000 252L4734 252Z" stroke="rgb(0,0,0)" stroke-opacity="1" stroke-width="8" fill="rgb(0,0,0)" fill-opacity="1"></path></g></g></g><g><g><g transform="matrix(1,0,0,1,708.8483276367188,259.39837646484375)"><path transform="matrix(0.022,0,0,-0.022,0,0)" d="M35 623L177 623L295 624L295 0L384 0L384 624L501 623L643 623L643 689L35 689ZM631 226C631 102 718 -11 849 -11C912 -11 964 11 1007 40L1001 106C957 74 912 51 849 51C773 51 705 117 701 220L1011 220L1011 249C1002 420 904 461 833 461C727 461 631 360 631 226ZM706 275C717 324 757 399 833 399C862 399 937 386 954 275ZM1068 34C1143 -7 1204 -11 1238 -11C1372 -11 1401 72 1401 127C1401 192 1355 234 1314 252C1252 280 1145 267 1145 340C1145 365 1160 401 1229 401C1301 401 1333 383 1373 364L1384 430C1329 453 1294 461 1238 461C1102 461 1074 382 1074 329C1074 259 1134 220 1178 206C1209 196 1252 191 1274 184C1294 178 1330 158 1330 120C1330 93 1312 52 1237 52C1156 52 1108 86 1080 102ZM1442 386L1526 386L1526 117C1526 7 1575 -11 1608 -11C1653 -11 1704 -1 1756 27L1740 86C1726 76 1695 53 1652 53C1600 53 1598 112 1598 140L1598 386L1739 386L1739 445L1598 445L1598 571L1528 571L1528 445L1442 445ZM2184 347C2184 155 2315 -22 2512 -22C2596 -22 2636 -9 2706 33L2700 103C2650 71 2616 42 2513 42C2376 42 2274 178 2274 347C2274 515 2376 652 2510 652C2589 652 2631 629 2680 599L2695 682C2606 715 2561 716 2497 716C2354 716 2184 574 2184 347ZM2801 113C2801 67 2831 -11 2915 -11C3025 -11 3080 34 3081 35L3081 0L3157 0L3157 305C3152 389 3086 461 2991 461C2928 461 2882 445 2834 417L2840 350C2873 373 2915 401 2990 401C3003 401 3029 400 3053 371C3078 341 3078 307 3079 279L3079 245C2976 244 2801 219 2801 113ZM2874 114C2874 177 3007 192 3079 193L3079 130C3079 65 3010 51 2967 51C2913 51 2874 78 2874 114ZM3264 34C3339 -7 3400 -11 3434 -11C3568 -11 3597 72 3597 127C3597 192 3551 234 3510 252C3448 280 3341 267 3341 340C3341 365 3356 401 3425 401C3497 401 3529 383 3569 364L3580 430C3525 453 3490 461 3434 461C3298 461 3270 382 3270 329C3270 259 3330 220 3374 206C3405 196 3448 191 3470 184C3490 178 3526 158 3526 120C3526 93 3508 52 3433 52C3352 52 3304 86 3276 102ZM3654 226C3654 102 3741 -11 3872 -11C3935 -11 3987 11 4030 40L4024 106C3980 74 3935 51 3872 51C3796 51 3728 117 3724 220L4034 220L4034 249C4025 420 3927 461 3856 461C3750 461 3654 360 3654 226ZM3729 275C3740 324 3780 399 3856 399C3885 399 3960 386 3977 275ZM4091 34C4166 -7 4227 -11 4261 -11C4395 -11 4424 72 4424 127C4424 192 4378 234 4337 252C4275 280 4168 267 4168 340C4168 365 4183 401 4252 401C4324 401 4356 383 4396 364L4407 430C4352 453 4317 461 4261 461C4125 461 4097 382 4097 329C4097 259 4157 220 4201 206C4232 196 4275 191 4297 184C4317 178 4353 158 4353 120C4353 93 4335 52 4260 52C4179 52 4131 86 4103 102Z" stroke="rgb(0,0,0)" stroke-opacity="1" stroke-width="8" fill="rgb(0,0,0)" fill-opacity="1"></path></g></g></g></g></svg>
</svg>
